<svg width="211" height="51" viewBox="0 0 211 51" fill="none" xmlns="http://www.w3.org/2000/svg">
<g filter="url(#filter0_d)">
<rect width="203" height="43" rx="21.5" transform="matrix(1 0 0 -1 4 43)" fill="#EEBA30"/>
</g>
<path d="M76.0586 14.3242C76.0326 14.2591 76.026 14.2135 76.0391 14.1875C76.0521 14.1615 76.0586 14.1094 76.0586 14.0312C75.9154 13.9531 75.7721 13.9336 75.6289 13.9727C75.4987 14.0117 75.362 14.0378 75.2188 14.0508C75.0755 14.0508 74.9062 14.0312 74.7109 13.9922C74.5286 13.9531 74.3333 13.9141 74.125 13.875C73.9297 13.8359 73.7279 13.8099 73.5195 13.7969C73.3112 13.7708 73.1094 13.7773 72.9141 13.8164C72.8099 13.8424 72.6602 13.9076 72.4648 14.0117C72.2695 14.1029 72.1263 14.1745 72.0352 14.2266C71.7357 14.4089 71.5208 14.6758 71.3906 15.0273C71.2604 15.3789 71.1432 15.737 71.0391 16.1016C70.987 16.1536 70.9284 16.1992 70.8633 16.2383C70.8112 16.2773 70.7721 16.3294 70.7461 16.3945C70.7461 16.4857 70.7786 16.5573 70.8438 16.6094C70.9219 16.6615 70.974 16.7266 71 16.8047C71.0781 17 71.1497 17.1953 71.2148 17.3906C71.2799 17.5859 71.3646 17.7682 71.4688 17.9375C71.638 18.1979 71.8724 18.4062 72.1719 18.5625C72.4844 18.7188 72.7969 18.8685 73.1094 19.0117C73.3307 19.1289 73.5195 19.2201 73.6758 19.2852C73.8451 19.3372 74.0404 19.4154 74.2617 19.5195C74.3919 19.5846 74.5091 19.6302 74.6133 19.6562C74.7174 19.6823 74.8151 19.7148 74.9062 19.7539C74.9974 19.793 75.082 19.8451 75.1602 19.9102C75.2383 19.9622 75.3229 20.0404 75.4141 20.1445C75.4922 20.2227 75.5638 20.3008 75.6289 20.3789C75.707 20.457 75.7786 20.5286 75.8438 20.5938C75.987 20.737 76.0846 20.8737 76.1367 21.0039C76.2018 21.1211 76.3255 21.2253 76.5078 21.3164C76.5339 21.4466 76.5924 21.5573 76.6836 21.6484C76.7747 21.7266 76.8333 21.8177 76.8594 21.9219C76.8854 22.0651 76.8659 22.1888 76.8008 22.293C76.7357 22.3971 76.7096 22.5143 76.7227 22.6445C76.7357 22.7617 76.7747 22.8594 76.8398 22.9375C76.918 23.0026 76.9701 23.0872 76.9961 23.1914C77.0221 23.2956 77.0221 23.4128 76.9961 23.543C76.9701 23.6732 76.931 23.8034 76.8789 23.9336C76.8138 24.1289 76.7617 24.3177 76.7227 24.5C76.6966 24.6823 76.6576 24.8581 76.6055 25.0273C76.5534 25.1966 76.4818 25.3594 76.3906 25.5156C76.2995 25.6589 76.1628 25.7891 75.9805 25.9062C75.9284 25.9323 75.8698 25.9583 75.8047 25.9844C75.7526 25.9974 75.7005 26.0169 75.6484 26.043C75.5833 26.069 75.5312 26.1016 75.4922 26.1406C75.4531 26.1797 75.4141 26.2122 75.375 26.2383C75.3229 26.2643 75.2643 26.2839 75.1992 26.2969C75.1471 26.3099 75.0951 26.3294 75.043 26.3555C74.9648 26.3945 74.8932 26.4466 74.8281 26.5117C74.763 26.5638 74.6914 26.6029 74.6133 26.6289C74.4831 26.694 74.3854 26.7852 74.3203 26.9023C74.2552 27.0065 74.138 27.0911 73.9688 27.1562C73.8255 27.2214 73.7083 27.306 73.6172 27.4102C73.526 27.5143 73.4219 27.5794 73.3047 27.6055C73.1094 27.6445 72.9076 27.638 72.6992 27.5859C72.4909 27.5339 72.2826 27.5078 72.0742 27.5078C71.8659 27.4948 71.651 27.5013 71.4297 27.5273C71.2083 27.5664 70.987 27.5924 70.7656 27.6055C70.5312 27.6315 70.2773 27.6576 70.0039 27.6836C69.7435 27.7227 69.5221 27.7227 69.3398 27.6836C69.1836 27.6576 68.9818 27.612 68.7344 27.5469C68.487 27.4948 68.2396 27.4297 67.9922 27.3516C67.7448 27.2865 67.5104 27.2083 67.2891 27.1172C67.0807 27.0391 66.931 26.9544 66.8398 26.8633C66.7747 26.7982 66.7161 26.7201 66.6641 26.6289C66.625 26.5247 66.5729 26.4401 66.5078 26.375C66.3646 26.2318 66.1953 26.0951 66 25.9648C65.8047 25.8216 65.6615 25.6719 65.5703 25.5156C65.5312 25.4375 65.5052 25.3594 65.4922 25.2812C65.4661 25.1901 65.4401 25.099 65.4141 25.0078C65.388 24.9167 65.349 24.832 65.2969 24.7539C65.2448 24.6758 65.2122 24.6042 65.1992 24.5391C65.1862 24.4609 65.1992 24.3958 65.2383 24.3438C65.2773 24.2786 65.3034 24.2135 65.3164 24.1484C65.3424 24.0052 65.362 23.862 65.375 23.7188C65.375 23.5755 65.4271 23.4453 65.5312 23.3281C65.6484 23.3021 65.8112 23.237 66.0195 23.1328C66.2279 23.0286 66.4232 22.9505 66.6055 22.8984C66.8008 22.8333 66.9505 22.8138 67.0547 22.8398C67.1719 22.8659 67.1849 22.9961 67.0938 23.2305C67.224 23.3086 67.3151 23.4128 67.3672 23.543C67.4193 23.6602 67.4518 23.7904 67.4648 23.9336C67.4909 24.0638 67.5104 24.207 67.5234 24.3633C67.5495 24.5195 67.5951 24.6693 67.6602 24.8125C67.7253 24.9688 67.8555 25.099 68.0508 25.2031C68.2591 25.3073 68.4154 25.418 68.5195 25.5352C68.7148 25.5221 68.8971 25.5417 69.0664 25.5938C69.2357 25.6458 69.3984 25.7044 69.5547 25.7695C69.724 25.8216 69.8932 25.8737 70.0625 25.9258C70.2448 25.9648 70.4401 25.9714 70.6484 25.9453C70.7266 25.9323 70.8047 25.8672 70.8828 25.75C70.974 25.6198 71.0586 25.5482 71.1367 25.5352C71.4753 25.457 71.7878 25.4115 72.0742 25.3984C72.3607 25.3854 72.6146 25.2812 72.8359 25.0859C73.0052 24.9427 73.1354 24.806 73.2266 24.6758C73.3307 24.5456 73.3893 24.3893 73.4023 24.207C73.4154 23.9987 73.3893 23.8359 73.3242 23.7188C73.2721 23.5885 73.194 23.4844 73.0898 23.4062C72.9857 23.3281 72.862 23.2565 72.7188 23.1914C72.5885 23.1263 72.4583 23.0417 72.3281 22.9375C72.25 22.8854 72.1719 22.8268 72.0938 22.7617C72.0286 22.6966 71.9635 22.651 71.8984 22.625C71.638 22.5078 71.3516 22.4102 71.0391 22.332C70.7396 22.2409 70.4596 22.1367 70.1992 22.0195C70.069 21.9544 69.9583 21.8372 69.8672 21.668C69.776 21.4987 69.6589 21.401 69.5156 21.375C69.4505 21.349 69.3789 21.349 69.3008 21.375C69.2227 21.401 69.138 21.4076 69.0469 21.3945C68.9427 21.3815 68.7995 21.3229 68.6172 21.2188C68.4479 21.1146 68.3307 21.0299 68.2656 20.9648C68.2266 20.9258 68.194 20.8737 68.168 20.8086C68.1419 20.7305 68.1029 20.6654 68.0508 20.6133C67.9596 20.4961 67.862 20.3919 67.7578 20.3008C67.6536 20.2096 67.582 20.112 67.543 20.0078C67.5169 19.9297 67.4974 19.8581 67.4844 19.793C67.4844 19.7279 67.4714 19.6628 67.4453 19.5977C67.4193 19.5456 67.3867 19.5 67.3477 19.4609C67.3086 19.4219 67.2695 19.3763 67.2305 19.3242C67.2044 19.2591 67.1914 19.194 67.1914 19.1289C67.1914 19.0508 67.1784 18.9727 67.1523 18.8945C67.0742 18.6602 66.9961 18.4583 66.918 18.2891C66.8398 18.1068 66.8138 17.8594 66.8398 17.5469C66.8529 17.3385 66.8398 17.1758 66.8008 17.0586C66.7747 16.9414 66.7812 16.8112 66.8203 16.668C66.8464 16.5638 66.8724 16.4727 66.8984 16.3945C66.9245 16.3034 66.957 16.2057 66.9961 16.1016C67.0221 16.0104 67.0352 15.9193 67.0352 15.8281C67.0482 15.737 67.0677 15.6589 67.0938 15.5938C67.1328 15.5286 67.1849 15.457 67.25 15.3789C67.3281 15.3008 67.3932 15.2227 67.4453 15.1445C67.5885 14.9232 67.7318 14.7018 67.875 14.4805C68.0182 14.2461 68.207 14.0508 68.4414 13.8945C68.5456 13.6862 68.7344 13.4779 69.0078 13.2695C69.2812 13.0482 69.5547 12.8789 69.8281 12.7617C70.1276 12.6185 70.4596 12.4688 70.8242 12.3125C71.1888 12.1432 71.5013 12.0326 71.7617 11.9805C71.957 11.9414 72.1458 11.9219 72.3281 11.9219C72.5104 11.9219 72.7057 11.9219 72.9141 11.9219C73.2396 11.9089 73.4935 11.9089 73.6758 11.9219C73.8581 11.9349 74.0794 11.9609 74.3398 12C74.444 12.026 74.5547 12.0456 74.6719 12.0586C74.8021 12.0716 74.9128 12.0911 75.0039 12.1172C75.069 12.1432 75.1211 12.1758 75.1602 12.2148C75.1992 12.2409 75.2643 12.2604 75.3555 12.2734C75.4987 12.2865 75.6419 12.2734 75.7852 12.2344C75.9414 12.1823 76.0911 12.1628 76.2344 12.1758C76.4948 12.2018 76.7031 12.2669 76.8594 12.3711C77.0286 12.4753 77.2174 12.5859 77.4258 12.7031C77.543 12.7682 77.6602 12.8268 77.7773 12.8789C77.8945 12.931 77.9857 12.9896 78.0508 13.0547C78.1289 13.1328 78.207 13.2435 78.2852 13.3867C78.3633 13.5299 78.4349 13.6862 78.5 13.8555C78.5651 14.0117 78.6172 14.1745 78.6562 14.3438C78.7083 14.513 78.7344 14.6562 78.7344 14.7734C78.7344 14.8385 78.7279 14.8971 78.7148 14.9492C78.7018 15.0013 78.6953 15.0599 78.6953 15.125C78.7083 15.2292 78.7474 15.3464 78.8125 15.4766C78.8776 15.6068 78.8971 15.7435 78.8711 15.8867C78.8581 15.9909 78.806 16.0755 78.7148 16.1406C78.6367 16.1927 78.5651 16.2643 78.5 16.3555C78.4479 16.4336 78.4089 16.5247 78.3828 16.6289C78.3568 16.7201 78.3177 16.7982 78.2656 16.8633C78.2005 16.9544 78.1354 17.0326 78.0703 17.0977C78.0182 17.1628 77.9792 17.2409 77.9531 17.332C77.8229 17.4753 77.6211 17.6055 77.3477 17.7227C77.0872 17.8268 76.7943 17.9115 76.4688 17.9766C76.1432 18.0417 75.8112 18.0742 75.4727 18.0742C75.1471 18.0742 74.8607 18.0352 74.6133 17.957C74.5482 17.931 74.4831 17.8919 74.418 17.8398C74.3659 17.7878 74.3008 17.7487 74.2227 17.7227C74.1445 17.6966 74.0599 17.6771 73.9688 17.6641C73.8906 17.651 73.8255 17.625 73.7734 17.5859C73.6953 17.5339 73.5781 17.4167 73.4219 17.2344C73.2786 17.0391 73.194 16.8893 73.168 16.7852C73.1159 16.694 73.0898 16.5964 73.0898 16.4922C73.1029 16.375 73.1159 16.2513 73.1289 16.1211C73.1549 16.0039 73.1745 15.8607 73.1875 15.6914C73.2135 15.5091 73.2656 15.3854 73.3438 15.3203C73.3698 15.2943 73.4284 15.2617 73.5195 15.2227C73.6107 15.1836 73.7083 15.1836 73.8125 15.2227C73.9167 15.2487 74.0078 15.3203 74.0859 15.4375C74.1641 15.5547 74.2422 15.6849 74.3203 15.8281C74.3984 15.9583 74.4766 16.0885 74.5547 16.2188C74.6458 16.3359 74.7435 16.4206 74.8477 16.4727C75.0039 16.5638 75.1927 16.6159 75.4141 16.6289C75.6484 16.6289 75.8372 16.5964 75.9805 16.5312C76.2279 16.4531 76.4102 16.3229 76.5273 16.1406C76.6576 15.9583 76.7227 15.7565 76.7227 15.5352C76.7227 15.3138 76.6641 15.099 76.5469 14.8906C76.4427 14.6693 76.2799 14.4805 76.0586 14.3242ZM89.3984 18.4844C89.5286 18.7448 89.6263 18.9857 89.6914 19.207C89.7565 19.4284 89.8086 19.7279 89.8477 20.1055C89.8737 20.3659 89.8997 20.6003 89.9258 20.8086C89.9648 21.0039 89.9714 21.2513 89.9453 21.5508C89.9323 21.7591 89.8997 21.9805 89.8477 22.2148C89.7956 22.4362 89.7305 22.6445 89.6523 22.8398C89.5352 23.1914 89.4245 23.4974 89.3203 23.7578C89.2161 24.0182 89.0924 24.2982 88.9492 24.5977C88.8581 24.7669 88.7669 24.9036 88.6758 25.0078C88.5846 25.112 88.487 25.2227 88.3828 25.3398C88.3568 25.3789 88.3307 25.4245 88.3047 25.4766C88.2917 25.5286 88.2656 25.5742 88.2266 25.6133C88.0573 25.8086 87.8229 26.0104 87.5234 26.2188C87.237 26.4271 86.9701 26.5768 86.7227 26.668C86.6315 26.694 86.5339 26.7135 86.4297 26.7266C86.3385 26.7266 86.2409 26.7396 86.1367 26.7656C86.0065 26.8177 85.8958 26.8958 85.8047 27C85.7135 27.0911 85.5964 27.1562 85.4531 27.1953C85.375 27.2214 85.2773 27.2409 85.1602 27.2539C85.056 27.2799 84.9518 27.306 84.8477 27.332C84.5872 27.3971 84.2617 27.4622 83.8711 27.5273C83.4935 27.5924 83.1419 27.5859 82.8164 27.5078C82.7643 27.4948 82.7122 27.4688 82.6602 27.4297C82.6081 27.3906 82.5495 27.3581 82.4844 27.332C82.4193 27.306 82.3542 27.2865 82.2891 27.2734C82.224 27.2604 82.1654 27.2409 82.1133 27.2148C81.944 27.1497 81.7812 27.0586 81.625 26.9414C81.4688 26.8242 81.306 26.7331 81.1367 26.668C80.9544 26.5638 80.7721 26.4727 80.5898 26.3945C80.4076 26.3034 80.2839 26.1471 80.2188 25.9258C79.9974 25.8607 79.8411 25.7109 79.75 25.4766C79.6589 25.2422 79.5482 25.0339 79.418 24.8516C79.3789 24.7865 79.3203 24.7344 79.2422 24.6953C79.1771 24.6432 79.1315 24.5846 79.1055 24.5195C79.0143 24.3763 78.9427 24.1484 78.8906 23.8359C78.8385 23.5104 78.806 23.237 78.793 23.0156C78.7799 22.7812 78.793 22.5599 78.832 22.3516C78.8841 22.1302 78.9362 21.9154 78.9883 21.707C79.0534 21.4987 79.1185 21.2969 79.1836 21.1016C79.2617 20.9062 79.3268 20.7174 79.3789 20.5352C79.431 20.3138 79.5286 20.138 79.6719 20.0078C79.8151 19.8776 79.9518 19.7344 80.082 19.5781C80.1341 19.526 80.1732 19.4674 80.1992 19.4023C80.2253 19.3372 80.2643 19.2721 80.3164 19.207C80.4206 19.0768 80.5378 18.9661 80.668 18.875C80.7982 18.7708 80.9219 18.6667 81.0391 18.5625C81.1693 18.4583 81.306 18.3607 81.4492 18.2695C81.5924 18.1654 81.7096 18.0612 81.8008 17.957C81.9049 17.8138 81.9831 17.6706 82.0352 17.5273C82.1003 17.3841 82.1979 17.2604 82.3281 17.1562C82.4714 17.0391 82.6276 16.9544 82.7969 16.9023C82.9792 16.8503 83.1875 16.7917 83.4219 16.7266C83.6432 16.6745 83.8581 16.6029 84.0664 16.5117C84.2878 16.4076 84.5221 16.3424 84.7695 16.3164C85.0039 16.2904 85.2578 16.2773 85.5312 16.2773C85.8047 16.2643 86.0716 16.2708 86.332 16.2969C86.6055 16.3229 86.8594 16.3685 87.0938 16.4336C87.3411 16.4987 87.556 16.5898 87.7383 16.707C87.8294 16.7591 87.9206 16.8372 88.0117 16.9414C88.1159 17.0456 88.2135 17.1432 88.3047 17.2344C88.513 17.4427 88.6888 17.6576 88.832 17.8789C88.9883 18.0872 89.1771 18.2891 89.3984 18.4844ZM85.1406 17.6055C85.0885 17.6055 85.0104 17.625 84.9062 17.6641C84.8151 17.7031 84.7174 17.7487 84.6133 17.8008C84.5221 17.8398 84.4375 17.8854 84.3594 17.9375C84.2812 17.9896 84.2227 18.0286 84.1836 18.0547C84.0273 18.1979 83.8841 18.3802 83.7539 18.6016C83.6367 18.8099 83.5 18.9987 83.3438 19.168C83.2786 19.2331 83.207 19.2852 83.1289 19.3242C83.0638 19.3503 83.0117 19.3893 82.9727 19.4414C82.7513 19.6888 82.5885 19.9753 82.4844 20.3008C82.3932 20.6263 82.2956 20.9388 82.1914 21.2383C82.0742 21.5508 81.9635 21.9023 81.8594 22.293C81.7552 22.6836 81.7227 23.0547 81.7617 23.4062C81.7747 23.4844 81.8008 23.5885 81.8398 23.7188C81.8919 23.8359 81.9375 23.9466 81.9766 24.0508C82.0286 24.168 82.0742 24.2852 82.1133 24.4023C82.1654 24.5065 82.2174 24.6042 82.2695 24.6953C82.3477 24.8516 82.4453 25.0208 82.5625 25.2031C82.6927 25.3724 82.8359 25.5221 82.9922 25.6523C83.1615 25.7695 83.3438 25.8607 83.5391 25.9258C83.7474 25.9779 83.9688 25.9714 84.2031 25.9062C84.3464 25.8542 84.5221 25.776 84.7305 25.6719C84.9388 25.5547 85.1276 25.444 85.2969 25.3398C85.5443 25.1836 85.7201 25.0273 85.8242 24.8711C85.9284 24.7018 86.0326 24.487 86.1367 24.2266C86.1628 24.1615 86.1953 24.1029 86.2344 24.0508C86.2865 23.9857 86.332 23.9206 86.3711 23.8555C86.4492 23.7122 86.5143 23.556 86.5664 23.3867C86.6185 23.2174 86.6836 23.0547 86.7617 22.8984C86.918 22.5469 87.0156 22.2083 87.0547 21.8828C87.0938 21.5573 87.1263 21.1667 87.1523 20.7109C87.1654 20.4635 87.1458 20.2812 87.0938 20.1641C87.0547 20.0469 87.0221 19.8841 86.9961 19.6758C86.9831 19.5326 86.9766 19.4023 86.9766 19.2852C86.9766 19.1549 86.9505 19.0443 86.8984 18.9531C86.8333 18.8359 86.7096 18.7578 86.5273 18.7188C86.3581 18.6797 86.2214 18.6081 86.1172 18.5039C86.013 18.3346 85.9023 18.1719 85.7852 18.0156C85.668 17.8594 85.5247 17.7292 85.3555 17.625C85.2904 17.638 85.2448 17.638 85.2188 17.625C85.1927 17.612 85.1667 17.6055 85.1406 17.6055ZM98.6367 16.8047C98.7409 16.8307 98.8451 16.8438 98.9492 16.8438C99.0534 16.8438 99.1576 16.8568 99.2617 16.8828C99.3008 16.8828 99.3398 16.8958 99.3789 16.9219C99.418 16.9479 99.457 16.9674 99.4961 16.9805C99.5352 16.9935 99.5742 16.9935 99.6133 16.9805C99.6523 16.9674 99.6914 16.9674 99.7305 16.9805C100.03 17.0586 100.271 17.1823 100.453 17.3516C100.635 17.5078 100.818 17.7031 101 17.9375C101.078 18.0677 101.176 18.224 101.293 18.4062C101.41 18.5755 101.508 18.7708 101.586 18.9922C101.664 19.2005 101.71 19.4219 101.723 19.6562C101.736 19.8906 101.69 20.125 101.586 20.3594C101.56 20.4245 101.521 20.5091 101.469 20.6133C101.417 20.7044 101.365 20.8021 101.312 20.9062C101.234 21.0495 101.137 21.1992 101.02 21.3555C100.902 21.5117 100.779 21.6224 100.648 21.6875C100.544 21.7526 100.453 21.8112 100.375 21.8633C100.31 21.9154 100.225 21.9674 100.121 22.0195C99.9388 22.0846 99.7565 22.1823 99.5742 22.3125C99.4049 22.4297 99.2292 22.5273 99.0469 22.6055C98.9818 22.6315 98.9102 22.651 98.832 22.6641C98.7669 22.6641 98.7018 22.6771 98.6367 22.7031C98.5456 22.7552 98.474 22.8268 98.4219 22.918C98.3698 23.0091 98.2721 23.0742 98.1289 23.1133C98.4544 23.1914 98.7539 23.3737 99.0273 23.6602C99.3008 23.9336 99.5091 24.2201 99.6523 24.5195C99.7174 24.7018 99.8086 24.8646 99.9258 25.0078C100.043 25.151 100.095 25.3138 100.082 25.4961C100.173 25.5742 100.245 25.6784 100.297 25.8086C100.362 25.9258 100.414 26.056 100.453 26.1992C100.492 26.3424 100.525 26.4922 100.551 26.6484C100.59 26.7917 100.635 26.9219 100.688 27.0391C100.766 27.2083 100.85 27.3451 100.941 27.4492C101.033 27.5664 101.13 27.6706 101.234 27.7617C101.339 27.8659 101.443 27.9701 101.547 28.0742C101.651 28.1914 101.742 28.3346 101.82 28.5039C101.872 28.4909 101.911 28.4714 101.938 28.4453C101.977 28.4323 102.029 28.4323 102.094 28.4453C102.289 28.5885 102.504 28.6992 102.738 28.7773C102.986 28.8555 103.285 28.9206 103.637 28.9727C103.936 29.0247 104.216 29.0378 104.477 29.0117C104.75 28.9987 105.03 28.9661 105.316 28.9141C105.408 28.901 105.518 28.862 105.648 28.7969C105.792 28.7448 105.928 28.6992 106.059 28.6602C106.202 28.6211 106.326 28.6016 106.43 28.6016C106.534 28.6146 106.586 28.6862 106.586 28.8164C106.586 28.9076 106.527 29.0182 106.41 29.1484C106.293 29.2786 106.189 29.3763 106.098 29.4414C105.876 29.5977 105.622 29.7214 105.336 29.8125C105.049 29.9036 104.75 29.9753 104.438 30.0273C104.125 30.0924 103.806 30.138 103.48 30.1641C103.155 30.1901 102.849 30.2096 102.562 30.2227C102.38 30.2227 102.211 30.1901 102.055 30.125C101.911 30.0729 101.781 30.0339 101.664 30.0078C101.404 29.9688 101.169 29.9232 100.961 29.8711C100.766 29.819 100.577 29.7409 100.395 29.6367C100.238 29.5456 100.102 29.4154 99.9844 29.2461C99.8672 29.0898 99.7044 28.9922 99.4961 28.9531C99.1576 28.6536 98.819 28.3477 98.4805 28.0352C98.1419 27.7357 97.875 27.3581 97.6797 26.9023C97.6146 26.7852 97.543 26.6745 97.4648 26.5703C97.3867 26.4531 97.3281 26.3294 97.2891 26.1992C97.25 26.1081 97.224 26.0104 97.2109 25.9062C97.2109 25.8021 97.1979 25.6849 97.1719 25.5547C97.1458 25.4115 97.1068 25.2617 97.0547 25.1055C97.0026 24.9362 96.9505 24.7799 96.8984 24.6367C96.8854 24.5977 96.8659 24.5586 96.8398 24.5195C96.8138 24.4805 96.7943 24.4414 96.7812 24.4023C96.7552 24.3242 96.7292 24.2331 96.7031 24.1289C96.6771 24.0117 96.6315 23.9206 96.5664 23.8555C96.5013 23.8034 96.3906 23.7448 96.2344 23.6797C96.0911 23.6146 95.9674 23.569 95.8633 23.543C95.7201 23.5169 95.5768 23.5234 95.4336 23.5625C95.3034 23.6016 95.1797 23.6276 95.0625 23.6406C94.8932 23.6667 94.7305 23.6732 94.5742 23.6602C94.418 23.6341 94.2878 23.6406 94.1836 23.6797C94.0013 23.7448 93.8516 23.9141 93.7344 24.1875C93.6172 24.4609 93.5456 24.7474 93.5195 25.0469C93.4674 25.3464 93.3893 25.6393 93.2852 25.9258C93.181 26.1992 93.0964 26.4661 93.0312 26.7266C92.9792 26.8958 92.8945 27.0326 92.7773 27.1367C92.6602 27.2539 92.4974 27.2995 92.2891 27.2734C92.1849 27.2604 92.1003 27.2474 92.0352 27.2344C91.9831 27.2344 91.9115 27.2083 91.8203 27.1562C91.7552 27.1823 91.638 27.2409 91.4688 27.332C91.3125 27.4362 91.2018 27.5078 91.1367 27.5469C90.707 27.6771 90.4596 27.6445 90.3945 27.4492C90.3424 27.2539 90.3685 26.9414 90.4727 26.5117C90.5378 26.2383 90.6354 25.9714 90.7656 25.7109C90.9089 25.4505 91.0065 25.2292 91.0586 25.0469C91.0846 24.9297 91.0911 24.8255 91.0781 24.7344C91.0781 24.6302 91.0716 24.5326 91.0586 24.4414C91.0456 24.3503 91.0391 24.2721 91.0391 24.207C91.0391 24.1289 91.0651 24.0573 91.1172 23.9922C91.1302 23.849 91.1693 23.7383 91.2344 23.6602C91.2995 23.569 91.3451 23.4518 91.3711 23.3086C91.3971 23.1784 91.4297 23.0417 91.4688 22.8984C91.5078 22.7552 91.5339 22.6185 91.5469 22.4883C91.5599 22.332 91.5664 22.1888 91.5664 22.0586C91.5794 21.9154 91.625 21.7526 91.7031 21.5703C91.7682 21.401 91.8333 21.2318 91.8984 21.0625C91.9766 20.8802 92.0286 20.7044 92.0547 20.5352C92.0807 20.4049 92.0938 20.2747 92.0938 20.1445C92.1068 20.0013 92.1393 19.8646 92.1914 19.7344C92.2174 19.6302 92.2695 19.5456 92.3477 19.4805C92.4388 19.4154 92.4974 19.3307 92.5234 19.2266C92.5365 19.1484 92.5299 19.0768 92.5039 19.0117C92.4779 18.9466 92.4779 18.8815 92.5039 18.8164C92.582 18.556 92.6081 18.3542 92.582 18.2109C92.556 18.0547 92.5104 17.931 92.4453 17.8398C92.3932 17.7357 92.3411 17.638 92.2891 17.5469C92.25 17.4557 92.25 17.332 92.2891 17.1758C92.3542 17.1628 92.4128 17.1107 92.4648 17.0195C92.5169 16.9154 92.5885 16.8503 92.6797 16.8242C92.7318 16.8112 92.8294 16.8047 92.9727 16.8047C93.1159 16.7917 93.2721 16.7852 93.4414 16.7852C93.6107 16.7721 93.7734 16.7721 93.9297 16.7852C94.0859 16.7852 94.2096 16.7852 94.3008 16.7852C94.4049 16.7982 94.5352 16.7982 94.6914 16.7852C94.8477 16.7591 95.0104 16.7461 95.1797 16.7461C95.349 16.7331 95.5052 16.7266 95.6484 16.7266C95.8047 16.7266 95.9349 16.7526 96.0391 16.8047H98.6367ZM95.668 21.7852C95.7721 21.7852 95.8698 21.7591 95.9609 21.707C96.0651 21.6549 96.1628 21.6419 96.2539 21.668C96.3841 21.694 96.5143 21.7135 96.6445 21.7266C96.7747 21.7396 96.918 21.7591 97.0742 21.7852C97.1393 21.7982 97.2044 21.7917 97.2695 21.7656C97.3346 21.7396 97.4193 21.7331 97.5234 21.7461C97.7318 21.5898 97.9141 21.4727 98.0703 21.3945C98.2396 21.3164 98.3958 21.1602 98.5391 20.9258C98.6042 20.8086 98.6758 20.6979 98.7539 20.5938C98.832 20.4766 98.8841 20.3789 98.9102 20.3008C99.0013 20.0013 98.9883 19.7474 98.8711 19.5391C98.7539 19.3177 98.6432 19.1224 98.5391 18.9531C98.4089 18.7578 98.2852 18.6211 98.168 18.543C98.0508 18.4518 97.8555 18.4193 97.582 18.4453C97.3607 18.4583 97.1328 18.4583 96.8984 18.4453C96.6641 18.4193 96.4362 18.4128 96.2148 18.4258C96.0065 18.4388 95.8177 18.4779 95.6484 18.543C95.4792 18.6081 95.3555 18.7253 95.2773 18.8945C95.2122 19.0898 95.1341 19.3047 95.043 19.5391C94.9518 19.7734 94.8672 20.0143 94.7891 20.2617C94.7109 20.4961 94.6458 20.737 94.5938 20.9844C94.5417 21.2318 94.5156 21.4727 94.5156 21.707C94.7109 21.681 94.9062 21.694 95.1016 21.7461C95.2969 21.7852 95.4857 21.7982 95.668 21.7852ZM113.07 16.7852C113.044 16.9935 112.966 17.1237 112.836 17.1758C112.719 17.2279 112.595 17.2865 112.465 17.3516C112.374 17.4167 112.309 17.5013 112.27 17.6055C112.23 17.7096 112.178 17.7878 112.113 17.8398C112.048 17.9049 111.951 17.957 111.82 17.9961C111.703 18.0221 111.605 18.0482 111.527 18.0742C111.306 18.1393 111.072 18.1719 110.824 18.1719C110.59 18.1719 110.382 18.1849 110.199 18.2109C110.095 18.237 109.991 18.2956 109.887 18.3867C109.783 18.4779 109.672 18.5495 109.555 18.6016C109.438 18.6406 109.346 18.6732 109.281 18.6992C109.216 18.7253 109.158 18.7578 109.105 18.7969C109.066 18.8359 109.027 18.888 108.988 18.9531C108.949 19.0052 108.897 19.0833 108.832 19.1875C108.767 19.3047 108.734 19.474 108.734 19.6953C108.734 19.9167 108.715 20.099 108.676 20.2422C108.637 20.3594 108.591 20.4961 108.539 20.6523C108.5 20.8086 108.454 20.9779 108.402 21.1602C108.376 21.2643 108.363 21.3815 108.363 21.5117C108.363 21.6289 108.35 21.7396 108.324 21.8438C108.285 21.974 108.22 22.0716 108.129 22.1367C108.051 22.2018 107.992 22.319 107.953 22.4883C107.927 22.5664 107.914 22.651 107.914 22.7422C107.927 22.8203 107.927 22.8984 107.914 22.9766C107.862 23.2891 107.797 23.6276 107.719 23.9922C107.654 24.3568 107.589 24.7148 107.523 25.0664C107.458 25.3659 107.387 25.6523 107.309 25.9258C107.243 26.1992 107.159 26.4531 107.055 26.6875C106.951 26.6745 106.846 26.707 106.742 26.7852C106.638 26.8503 106.534 26.8958 106.43 26.9219C106.339 26.9479 106.247 26.9609 106.156 26.9609C106.078 26.9609 106 26.9935 105.922 27.0586C105.831 27.1497 105.714 27.2669 105.57 27.4102C105.427 27.5664 105.303 27.6576 105.199 27.6836C105.108 27.7096 105.023 27.7096 104.945 27.6836C104.88 27.6576 104.815 27.638 104.75 27.625C104.646 27.625 104.542 27.625 104.438 27.625C104.346 27.638 104.236 27.638 104.105 27.625C104.053 27.4948 104.034 27.3516 104.047 27.1953C104.06 27.0521 104.086 26.9089 104.125 26.7656C104.177 26.6224 104.229 26.4857 104.281 26.3555C104.346 26.2122 104.392 26.0755 104.418 25.9453C104.444 25.8542 104.457 25.7565 104.457 25.6523C104.47 25.5482 104.496 25.444 104.535 25.3398C104.574 25.2227 104.633 25.1185 104.711 25.0273C104.802 24.9232 104.867 24.806 104.906 24.6758C104.958 24.5326 105.023 24.3633 105.102 24.168C105.18 23.9727 105.225 23.8099 105.238 23.6797C105.264 23.5234 105.258 23.3737 105.219 23.2305C105.193 23.0872 105.206 22.931 105.258 22.7617C105.284 22.6836 105.316 22.6185 105.355 22.5664C105.408 22.5013 105.447 22.4167 105.473 22.3125C105.512 22.1693 105.538 22.0195 105.551 21.8633C105.564 21.694 105.583 21.5312 105.609 21.375C105.635 21.2318 105.661 21.0951 105.688 20.9648C105.714 20.8216 105.746 20.6784 105.785 20.5352C105.824 20.3659 105.863 20.2096 105.902 20.0664C105.954 19.9102 105.993 19.7604 106.02 19.6172C106.059 19.474 106.078 19.3372 106.078 19.207C106.078 19.0638 106.039 18.9141 105.961 18.7578C105.883 18.6146 105.779 18.5104 105.648 18.4453C105.518 18.3802 105.375 18.3411 105.219 18.3281C105.062 18.3151 104.893 18.3151 104.711 18.3281C104.529 18.3411 104.353 18.3477 104.184 18.3477C104.118 18.3086 104.06 18.237 104.008 18.1328C103.956 18.0286 103.884 17.957 103.793 17.918C103.637 17.8659 103.461 17.8398 103.266 17.8398C103.083 17.8398 102.947 17.7682 102.855 17.625C102.777 17.4297 102.771 17.2409 102.836 17.0586C102.914 16.8763 103.005 16.7461 103.109 16.668C103.591 16.5898 104.092 16.5964 104.613 16.6875C105.134 16.7656 105.655 16.7982 106.176 16.7852C106.384 16.7721 106.592 16.7331 106.801 16.668C107.009 16.6029 107.224 16.6029 107.445 16.668C107.51 16.694 107.621 16.7396 107.777 16.8047C107.947 16.8568 108.064 16.8958 108.129 16.9219C108.194 16.9349 108.259 16.9349 108.324 16.9219C108.389 16.9089 108.454 16.9089 108.52 16.9219C108.624 16.9219 108.721 16.9414 108.812 16.9805C108.917 17.0065 109.021 17.0195 109.125 17.0195C109.255 17.0195 109.346 17.0195 109.398 17.0195C109.464 17.0065 109.516 16.9935 109.555 16.9805C109.607 16.9674 109.659 16.9544 109.711 16.9414C109.763 16.9154 109.848 16.8958 109.965 16.8828C110.069 16.8698 110.173 16.8763 110.277 16.9023C110.382 16.9284 110.486 16.9414 110.59 16.9414C110.876 16.9544 111.15 16.9219 111.41 16.8438C111.684 16.7526 111.951 16.694 112.211 16.668C112.354 16.6549 112.497 16.6549 112.641 16.668C112.797 16.668 112.94 16.707 113.07 16.7852ZM129.223 27.4688C129.158 27.4557 129.125 27.4102 129.125 27.332C129.125 27.2539 129.099 27.2018 129.047 27.1758C128.878 27.1758 128.741 27.1758 128.637 27.1758C128.546 27.1888 128.409 27.1628 128.227 27.0977C128.148 26.9154 128.109 26.7266 128.109 26.5312C128.109 26.3359 128.142 26.1471 128.207 25.9648C128.233 25.8867 128.272 25.8216 128.324 25.7695C128.389 25.7044 128.435 25.6393 128.461 25.5742C128.474 25.5091 128.467 25.4375 128.441 25.3594C128.428 25.2812 128.422 25.2096 128.422 25.1445C128.435 24.7539 128.52 24.3698 128.676 23.9922C128.832 23.6016 128.943 23.2174 129.008 22.8398C129.021 22.7357 129.014 22.612 128.988 22.4688C128.962 22.3125 128.962 22.1823 128.988 22.0781C129.014 21.9609 129.06 21.8503 129.125 21.7461C129.203 21.6419 129.255 21.5247 129.281 21.3945C129.333 21.1341 129.359 20.8802 129.359 20.6328C129.372 20.3724 129.431 20.1185 129.535 19.8711C129.092 20.3268 128.689 20.7956 128.324 21.2773C127.96 21.7461 127.615 22.293 127.289 22.918C127.146 23.2174 126.97 23.4909 126.762 23.7383C126.553 23.9727 126.378 24.2526 126.234 24.5781C126.208 24.6432 126.195 24.7083 126.195 24.7734C126.195 24.8255 126.182 24.8841 126.156 24.9492C126.091 25.0924 126 25.2422 125.883 25.3984C125.779 25.5547 125.694 25.7305 125.629 25.9258C125.59 26.069 125.544 26.2253 125.492 26.3945C125.453 26.5638 125.395 26.7266 125.316 26.8828C125.251 27.026 125.167 27.1497 125.062 27.2539C124.958 27.3581 124.822 27.4167 124.652 27.4297C124.496 27.4297 124.366 27.3971 124.262 27.332C124.171 27.2799 124.06 27.2734 123.93 27.3125C123.734 27.1693 123.533 27.0391 123.324 26.9219C123.129 26.7917 122.973 26.6029 122.855 26.3555C122.725 26.1081 122.628 25.7956 122.562 25.418C122.51 25.0273 122.445 24.6758 122.367 24.3633C122.341 24.2591 122.302 24.1615 122.25 24.0703C122.211 23.9661 122.185 23.875 122.172 23.7969C122.159 23.6406 122.159 23.4909 122.172 23.3477C122.185 23.1914 122.178 23.0417 122.152 22.8984C122.113 22.7422 122.029 22.6055 121.898 22.4883C121.781 22.3711 121.69 22.2604 121.625 22.1562C121.586 21.9609 121.56 21.7526 121.547 21.5312C121.534 21.2969 121.521 21.069 121.508 20.8477C121.378 20.8997 121.299 21.0039 121.273 21.1602C121.247 21.3164 121.202 21.4857 121.137 21.668C121.098 21.7591 121.052 21.8438 121 21.9219C120.961 22 120.935 22.0716 120.922 22.1367C120.909 22.2148 120.915 22.293 120.941 22.3711C120.967 22.4492 120.974 22.5404 120.961 22.6445C120.948 22.7227 120.922 22.8203 120.883 22.9375C120.857 23.0547 120.831 23.1654 120.805 23.2695C120.74 23.4518 120.661 23.6341 120.57 23.8164C120.479 23.9987 120.408 24.2005 120.355 24.4219C120.277 24.6432 120.225 24.8841 120.199 25.1445C120.186 25.3919 120.147 25.6068 120.082 25.7891C120.056 25.8672 120.004 25.9388 119.926 26.0039C119.848 26.069 119.77 26.1471 119.691 26.2383C119.613 26.3164 119.542 26.4076 119.477 26.5117C119.424 26.6159 119.398 26.7331 119.398 26.8633C119.255 26.9674 119.099 27.0521 118.93 27.1172C118.773 27.1953 118.585 27.2734 118.363 27.3516C118.246 27.3906 118.122 27.4167 117.992 27.4297C117.875 27.4427 117.764 27.4232 117.66 27.3711C117.556 27.332 117.478 27.2539 117.426 27.1367C117.374 27.0326 117.361 26.8828 117.387 26.6875C117.413 26.5052 117.471 26.3099 117.562 26.1016C117.667 25.8802 117.751 25.6393 117.816 25.3789C117.908 25.0404 117.986 24.7344 118.051 24.4609C118.129 24.1875 118.246 23.9531 118.402 23.7578V23.3867C118.454 23.2956 118.5 23.2109 118.539 23.1328C118.578 23.0417 118.637 22.9635 118.715 22.8984C118.676 22.7161 118.663 22.5404 118.676 22.3711C118.702 22.2018 118.741 22.0391 118.793 21.8828C118.858 21.7135 118.923 21.5573 118.988 21.4141C119.053 21.2578 119.112 21.1081 119.164 20.9648C119.216 20.8086 119.249 20.6719 119.262 20.5547C119.275 20.4245 119.314 20.3073 119.379 20.2031C119.405 20.151 119.451 20.112 119.516 20.0859C119.581 20.0469 119.633 19.9948 119.672 19.9297C119.737 19.8125 119.809 19.6497 119.887 19.4414C119.978 19.2201 120.036 19.0443 120.062 18.9141C120.102 18.7969 120.115 18.6797 120.102 18.5625C120.102 18.4323 120.095 18.3086 120.082 18.1914C120.069 18.0612 120.062 17.9375 120.062 17.8203C120.076 17.7031 120.115 17.599 120.18 17.5078C120.219 17.4427 120.284 17.3841 120.375 17.332C120.479 17.2799 120.564 17.2344 120.629 17.1953C120.772 17.1042 120.909 17.0326 121.039 16.9805C121.169 16.9154 121.326 16.8503 121.508 16.7852C121.573 16.7591 121.645 16.7331 121.723 16.707C121.801 16.681 121.866 16.668 121.918 16.668C122.061 16.668 122.191 16.7135 122.309 16.8047C122.426 16.8958 122.562 16.974 122.719 17.0391C122.784 17.0651 122.849 17.0781 122.914 17.0781C122.979 17.0781 123.031 17.0846 123.07 17.0977C123.305 17.2018 123.513 17.332 123.695 17.4883C123.878 17.6315 124.034 17.7682 124.164 17.8984C124.307 18.3932 124.372 18.9076 124.359 19.4414C124.359 19.9753 124.385 20.4896 124.438 20.9844C124.464 21.0625 124.49 21.1406 124.516 21.2188C124.542 21.2969 124.561 21.375 124.574 21.4531C124.587 21.5964 124.581 21.7331 124.555 21.8633C124.542 21.9935 124.548 22.1237 124.574 22.2539C124.613 22.5143 124.678 22.7487 124.77 22.957C124.874 23.1654 124.952 23.3932 125.004 23.6406C125.134 23.5755 125.238 23.4779 125.316 23.3477C125.395 23.2044 125.466 23.0677 125.531 22.9375C125.661 22.6641 125.792 22.4102 125.922 22.1758C126.052 21.9284 126.208 21.694 126.391 21.4727C126.534 21.2773 126.645 21.0625 126.723 20.8281C126.801 20.5938 126.944 20.4115 127.152 20.2812C127.23 20.2161 127.315 20.1771 127.406 20.1641C127.497 20.151 127.576 20.099 127.641 20.0078C127.706 19.513 127.829 19.0898 128.012 18.7383C128.207 18.3867 128.428 18.0417 128.676 17.7031C128.78 17.5729 128.897 17.4036 129.027 17.1953C129.171 16.974 129.307 16.8372 129.438 16.7852C129.555 16.7331 129.698 16.7266 129.867 16.7656C130.049 16.7917 130.212 16.8047 130.355 16.8047C130.551 16.8047 130.714 16.7786 130.844 16.7266C130.987 16.6745 131.117 16.6224 131.234 16.5703C131.365 16.5182 131.495 16.4727 131.625 16.4336C131.768 16.3945 131.938 16.388 132.133 16.4141C132.159 16.388 132.191 16.375 132.23 16.375C132.27 16.362 132.309 16.3424 132.348 16.3164C132.465 16.3685 132.582 16.4336 132.699 16.5117C132.816 16.5768 132.921 16.6615 133.012 16.7656C133.116 16.8568 133.194 16.9674 133.246 17.0977C133.311 17.2148 133.337 17.3451 133.324 17.4883C133.324 17.5534 133.298 17.625 133.246 17.7031C133.194 17.7812 133.148 17.8724 133.109 17.9766C133.083 18.0547 133.051 18.1393 133.012 18.2305C132.973 18.3216 132.94 18.4062 132.914 18.4844C132.875 18.6276 132.882 18.7773 132.934 18.9336C132.986 19.0768 132.979 19.194 132.914 19.2852C132.862 19.3503 132.79 19.4023 132.699 19.4414C132.621 19.4805 132.562 19.5391 132.523 19.6172C132.458 19.7083 132.413 19.8255 132.387 19.9688C132.374 20.112 132.348 20.2422 132.309 20.3594C132.23 20.6198 132.152 20.8737 132.074 21.1211C132.009 21.3685 131.951 21.6289 131.898 21.9023C131.859 22.1237 131.82 22.3385 131.781 22.5469C131.755 22.7552 131.671 22.9115 131.527 23.0156C131.488 23.224 131.469 23.4323 131.469 23.6406C131.482 23.8359 131.475 24.0312 131.449 24.2266C131.397 24.6042 131.293 24.9688 131.137 25.3203C130.98 25.6719 130.857 26.0169 130.766 26.3555C130.714 26.5508 130.668 26.7266 130.629 26.8828C130.603 27.026 130.525 27.1562 130.395 27.2734C130.186 27.2995 129.984 27.3385 129.789 27.3906C129.594 27.4427 129.405 27.4688 129.223 27.4688ZM143.617 17.8789C143.266 18.0482 142.914 18.1328 142.562 18.1328C142.211 18.1328 141.82 18.1198 141.391 18.0938C141.273 18.0938 141.143 18.1003 141 18.1133C140.87 18.1263 140.746 18.1393 140.629 18.1523C140.017 18.2174 139.503 18.4518 139.086 18.8555C138.669 19.2461 138.363 19.7409 138.168 20.3398C138.103 20.5612 138.051 20.763 138.012 20.9453C137.973 21.1276 138.057 21.2318 138.266 21.2578C138.396 21.2839 138.526 21.2839 138.656 21.2578C138.786 21.2318 138.917 21.1992 139.047 21.1602C139.19 21.1081 139.327 21.0625 139.457 21.0234C139.587 20.9844 139.717 20.9648 139.848 20.9648C139.9 20.9648 139.945 20.9779 139.984 21.0039C140.036 21.0299 140.089 21.043 140.141 21.043C140.362 21.069 140.596 21.056 140.844 21.0039C141.091 20.9388 141.319 20.9323 141.527 20.9844C141.566 20.9974 141.599 21.0234 141.625 21.0625C141.664 21.0885 141.716 21.1146 141.781 21.1406C141.951 21.2057 142.152 21.2513 142.387 21.2773C142.621 21.2904 142.81 21.3294 142.953 21.3945C143.018 21.4206 143.083 21.4727 143.148 21.5508C143.214 21.6159 143.246 21.6615 143.246 21.6875C143.246 21.8307 143.161 21.9219 142.992 21.9609C142.823 22 142.68 22.026 142.562 22.0391C142.458 22.0521 142.354 22.0521 142.25 22.0391C142.146 22.026 142.042 22.0326 141.938 22.0586C141.755 22.0846 141.579 22.1237 141.41 22.1758C141.241 22.2148 141.059 22.2669 140.863 22.332C140.642 22.4102 140.434 22.5078 140.238 22.625C140.043 22.7292 139.828 22.7943 139.594 22.8203C139.424 22.8464 139.262 22.8464 139.105 22.8203C138.949 22.7943 138.78 22.7943 138.598 22.8203C138.533 22.8333 138.467 22.8529 138.402 22.8789C138.35 22.9049 138.292 22.9245 138.227 22.9375C138.109 22.9635 138.018 22.9831 137.953 22.9961C137.901 22.9961 137.855 23.0091 137.816 23.0352C137.79 23.0612 137.758 23.1003 137.719 23.1523C137.693 23.2044 137.647 23.2826 137.582 23.3867C137.478 23.6211 137.413 23.875 137.387 24.1484C137.361 24.4089 137.335 24.6888 137.309 24.9883C137.452 25.1315 137.589 25.2487 137.719 25.3398C137.849 25.418 138.051 25.457 138.324 25.457C138.467 25.457 138.578 25.444 138.656 25.418C138.747 25.3789 138.865 25.3529 139.008 25.3398C139.151 25.3398 139.294 25.3529 139.438 25.3789C139.581 25.3919 139.743 25.3919 139.926 25.3789C140.303 25.3529 140.622 25.3073 140.883 25.2422C141.143 25.1641 141.462 25.138 141.84 25.1641C141.918 25.1641 142.055 25.1706 142.25 25.1836C142.458 25.1966 142.667 25.2161 142.875 25.2422C143.083 25.2552 143.266 25.2812 143.422 25.3203C143.591 25.3594 143.676 25.4115 143.676 25.4766C143.676 25.5547 143.624 25.6393 143.52 25.7305C143.428 25.8086 143.318 25.8867 143.188 25.9648C143.07 26.0299 142.947 26.0885 142.816 26.1406C142.699 26.1797 142.621 26.2057 142.582 26.2188C142.361 26.2839 142.146 26.3034 141.938 26.2773C141.729 26.2383 141.501 26.2318 141.254 26.2578C141.072 26.2839 140.909 26.3229 140.766 26.375C140.622 26.4271 140.479 26.4857 140.336 26.5508C140.193 26.6029 140.043 26.6615 139.887 26.7266C139.743 26.7786 139.574 26.8112 139.379 26.8242C139.118 26.8503 138.897 26.8828 138.715 26.9219C138.533 26.9479 138.318 26.987 138.07 27.0391C137.966 27.0651 137.868 27.0911 137.777 27.1172C137.686 27.1562 137.589 27.1888 137.484 27.2148C137.107 27.293 136.697 27.306 136.254 27.2539C135.824 27.2148 135.355 27.2214 134.848 27.2734C134.522 27.3125 134.229 27.3581 133.969 27.4102C133.721 27.4753 133.467 27.4948 133.207 27.4688C133.116 27.4557 133.031 27.4427 132.953 27.4297C132.862 27.4297 132.784 27.3971 132.719 27.332C132.745 27.2279 132.803 27.1367 132.895 27.0586C132.986 26.9805 133.077 26.9089 133.168 26.8438C133.259 26.7656 133.344 26.6875 133.422 26.6094C133.513 26.5182 133.598 26.4336 133.676 26.3555C133.754 26.2513 133.819 26.1276 133.871 25.9844C133.923 25.8281 133.969 25.6719 134.008 25.5156C134.06 25.3594 134.112 25.2161 134.164 25.0859C134.229 24.9427 134.307 24.819 134.398 24.7148C134.294 24.4805 134.294 24.2135 134.398 23.9141C134.516 23.6146 134.62 23.3021 134.711 22.9766C134.737 22.8984 134.75 22.8203 134.75 22.7422C134.75 22.6641 134.763 22.5924 134.789 22.5273C134.815 22.3971 134.874 22.2865 134.965 22.1953C135.056 22.0911 135.115 21.987 135.141 21.8828C135.154 21.8177 135.154 21.7526 135.141 21.6875C135.141 21.6224 135.147 21.5573 135.16 21.4922C135.186 21.2969 135.232 21.1146 135.297 20.9453C135.375 20.763 135.427 20.6003 135.453 20.457C135.479 20.3529 135.479 20.2487 135.453 20.1445C135.44 20.0273 135.44 19.9167 135.453 19.8125C135.479 19.5521 135.531 19.3047 135.609 19.0703C135.701 18.8359 135.753 18.6276 135.766 18.4453C135.779 18.3021 135.759 18.1458 135.707 17.9766C135.655 17.8073 135.603 17.6771 135.551 17.5859C135.512 17.5208 135.453 17.4557 135.375 17.3906C135.297 17.3125 135.219 17.2409 135.141 17.1758C135.062 17.1107 134.991 17.0521 134.926 17C134.874 16.9349 134.848 16.8763 134.848 16.8242C134.861 16.681 134.919 16.6094 135.023 16.6094C135.128 16.5964 135.225 16.5508 135.316 16.4727C135.785 16.4857 136.228 16.5378 136.645 16.6289C137.074 16.7201 137.517 16.7786 137.973 16.8047C138.142 16.8307 138.318 16.8307 138.5 16.8047C138.682 16.7656 138.858 16.7396 139.027 16.7266C139.301 16.7135 139.607 16.7526 139.945 16.8438C140.297 16.9349 140.642 16.9674 140.98 16.9414C141.436 16.9154 141.866 16.9023 142.27 16.9023C142.673 16.9023 143.096 16.8893 143.539 16.8633C143.617 16.9284 143.734 16.9609 143.891 16.9609C144.047 16.9479 144.203 16.9349 144.359 16.9219C144.529 16.8958 144.678 16.8893 144.809 16.9023C144.952 16.9154 145.049 16.974 145.102 17.0781C145.18 17.2604 145.167 17.4167 145.062 17.5469C144.958 17.6771 144.815 17.7617 144.633 17.8008C144.581 17.8008 144.509 17.8073 144.418 17.8203C144.327 17.8333 144.229 17.8464 144.125 17.8594C144.021 17.8724 143.917 17.8789 143.812 17.8789C143.721 17.8789 143.656 17.8789 143.617 17.8789Z" fill="black"/>
<defs>
<filter id="filter0_d" x="0" y="0" width="211" height="51" filterUnits="userSpaceOnUse" color-interpolation-filters="sRGB">
<feFlood flood-opacity="0" result="BackgroundImageFix"/>
<feColorMatrix in="SourceAlpha" type="matrix" values="0 0 0 0 0 0 0 0 0 0 0 0 0 0 0 0 0 0 127 0"/>
<feOffset dy="4"/>
<feGaussianBlur stdDeviation="2"/>
<feColorMatrix type="matrix" values="0 0 0 0 0 0 0 0 0 0 0 0 0 0 0 0 0 0 0.25 0"/>
<feBlend mode="normal" in2="BackgroundImageFix" result="effect1_dropShadow"/>
<feBlend mode="normal" in="SourceGraphic" in2="effect1_dropShadow" result="shape"/>
</filter>
</defs>
</svg>
